<?xml version="1.0" encoding="UTF-8"?>
<svg id="objects" xmlns="http://www.w3.org/2000/svg" viewBox="0 0 3300 2200">
  <defs>
    <style>
      .cls-1 {
        fill: #0e110f;
      }
    </style>
  </defs>
  <path class="cls-1" d="M2679,805.12c-73.78-227.08-239.24-376.84-503.7-290.91-22.4,7.28-43.99,15.79-64.75,25.36,2.69-22.69,4.11-45.86,4.11-69.41,0-278.07-193.56-389.15-432.33-389.15s-432.33,111.08-432.33,389.15c0,23.56,1.42,46.72,4.11,69.41-20.75-9.57-42.35-18.08-64.75-25.36-264.46-85.93-429.92,63.83-503.7,290.91-73.78,227.08-27.95,445.49,236.51,531.42,22.4,7.28,44.87,13.09,67.29,17.54-15.51,16.78-30.28,34.69-44.12,53.74-163.45,224.96-72.14,428.6,121.02,568.94,193.17,140.34,415.05,164.25,578.49-60.71,13.85-19.06,26.31-38.63,37.48-58.57,11.17,19.94,23.63,39.52,37.48,58.57,163.45,224.96,385.33,201.06,578.49,60.71,193.17-140.34,284.47-343.98,121.02-568.94-13.85-19.06-28.61-36.96-44.12-53.74,22.41-4.46,44.88-10.26,67.29-17.54,264.46-85.93,310.29-304.34,236.51-531.42Z"/>
</svg>